<svg width="280" height="230" viewBox="0 0 280 230" fill="none" xmlns="http://www.w3.org/2000/svg">
<path d="M185.152 99.429C183.452 99.249 181.091 99.71 177.513 100.847C174.568 101.782 163.687 105.256 160.745 106.199C157.171 107.346 154.977 108.339 153.697 109.469C150.879 111.959 149.817 116.343 152.324 123.117C155.19 130.862 161.971 136.9 170.91 137.085C176.737 137.198 182.438 135.378 187.122 131.909C194.393 126.709 196.33 117.73 194.178 109.756C192.3 102.783 188.892 99.825 185.152 99.429Z" stroke="black" stroke-width="5.669" stroke-linecap="round" stroke-linejoin="round"/>
<path d="M151.76 101.002C155.16 101.002 157.916 98.2459 157.916 94.8461C157.916 91.4462 155.16 88.6901 151.76 88.6901C148.36 88.6901 145.604 91.4462 145.604 94.8461C145.604 98.2459 148.36 101.002 151.76 101.002Z" stroke="black" stroke-width="5.669" stroke-linecap="round" stroke-linejoin="round"/>
<path d="M172.208 93.318L179.153 84.718C179.419 84.3889 179.794 84.1657 180.21 84.0887C180.626 84.0117 181.056 84.0859 181.422 84.298L189.551 89.007" stroke="black" stroke-width="5.669" stroke-linecap="round" stroke-linejoin="round"/>
<path d="M98.3369 104.222C97.1019 103.044 94.9469 101.968 91.4189 100.687C88.5189 99.6321 77.7739 95.7481 74.8659 94.7011C71.3339 93.4301 68.9899 92.8791 67.2869 92.9941C63.5349 93.2481 60.0199 96.0751 57.8749 102.972C55.4219 110.858 57.1129 119.779 64.0849 125.377C68.6329 129.02 74.2589 131.055 80.0849 131.164C89.0199 131.476 96.0299 125.542 99.1849 117.911C101.953 111.238 101.059 106.817 98.3369 104.222Z" stroke="black" stroke-width="5.669" stroke-linecap="round" stroke-linejoin="round"/>
<path d="M75.3249 85.5851C78.7248 85.5851 81.4809 82.8289 81.4809 79.4291C81.4809 76.0292 78.7248 73.2731 75.3249 73.2731C71.9251 73.2731 69.1689 76.0292 69.1689 79.4291C69.1689 82.8289 71.9251 85.5851 75.3249 85.5851Z" stroke="black" stroke-width="5.669" stroke-linecap="round" stroke-linejoin="round"/>
<path d="M100.872 94.3661C104.272 94.3661 107.028 91.6099 107.028 88.2101C107.028 84.8102 104.272 82.0541 100.872 82.0541C97.4721 82.0541 94.7159 84.8102 94.7159 88.2101C94.7159 91.6099 97.4721 94.3661 100.872 94.3661Z" stroke="black" stroke-width="5.669" stroke-linecap="round" stroke-linejoin="round"/>
<path d="M3.35999 92.01C3.35999 92.01 -1.14001 120.21 21.86 146.71C44.86 173.21 89.86 173.71 89.86 173.71" stroke="black" stroke-width="5.669" stroke-linecap="round" stroke-linejoin="round"/>
<path d="M234.051 93.2111C234.051 93.2111 238.051 123.811 225.051 143.311C212.051 162.811 189.551 165.811 189.551 165.811" stroke="black" stroke-width="5.669" stroke-linecap="round" stroke-linejoin="round"/>
<path d="M13.257 20.156L40.698 14.587" stroke="black" stroke-width="5.669" stroke-linecap="round" stroke-linejoin="round"/>
<path d="M24.059 2.98706L29.662 30.5961" stroke="black" stroke-width="5.669" stroke-linecap="round" stroke-linejoin="round"/>
<path d="M182.913 21.6331L203.66 40.4361" stroke="black" stroke-width="5.669" stroke-linecap="round" stroke-linejoin="round"/>
<path d="M203.143 20.1591L184.224 41.0331" stroke="black" stroke-width="5.669" stroke-linecap="round" stroke-linejoin="round"/>
<path d="M209.486 183.571H166.723V226.334H209.486V183.571Z" stroke="black" stroke-width="5.669" stroke-linecap="round" stroke-linejoin="round"/>
<path d="M51.35 214.075L74.2 185.451L92.569 217.136L51.35 214.075Z" stroke="black" stroke-width="4.687" stroke-linecap="round" stroke-linejoin="round"/>
<path d="M276.235 75.4261C273.101 78.512 268.875 80.2342 264.477 80.2173C260.078 80.2004 255.865 78.4457 252.755 75.3358C249.645 72.2258 247.891 68.0127 247.874 63.6145C247.857 59.2164 249.579 54.9899 252.665 51.8561L276.235 75.4261Z" stroke="black" stroke-width="5.669" stroke-linecap="round" stroke-linejoin="round"/>
</svg>
